<svg width="72" height="72" viewBox="0 0 72 72" fill="none" xmlns="http://www.w3.org/2000/svg">
<rect x="40" y="1" width="31" height="3" fill="#FF0000"/>
<rect x="40" y="68" width="31" height="3" fill="#FF0000"/>
<rect x="67" y="35" width="5" height="2" fill="#FF0000"/>
<rect y="35" width="5" height="2" fill="#FF0000"/>
<rect x="68" y="32" width="28" height="3" transform="rotate(-90 68 32)" fill="#FF0000"/>
<rect x="1" y="32" width="28" height="3" transform="rotate(-90 1 32)" fill="#FF0000"/>
<rect x="1" y="68" width="29" height="3" transform="rotate(-90 1 68)" fill="#FF0000"/>
<rect x="68" y="68" width="28" height="3" transform="rotate(-90 68 68)" fill="#FF0000"/>
<rect x="1" y="1" width="31" height="3" fill="#FF0000"/>
<rect x="1" y="68" width="31" height="3" fill="#FF0000"/>
<rect x="35" y="5" width="5" height="2" transform="rotate(-90 35 5)" fill="#FF0000"/>
<rect x="35" y="72" width="5" height="2" transform="rotate(-90 35 72)" fill="#FF0000"/>
</svg>
