<svg width="1920" height="960" viewBox="0 0 1920 960" fill="none" xmlns="http://www.w3.org/2000/svg">
<g clip-path="url(#clip0_515_1108)">
<rect width="1920" height="960" fill="#F4F7FA"/>
<g opacity="0.1">
<path fill-rule="evenodd" clip-rule="evenodd" d="M842.955 378.989L726.267 242.891C709.376 274.958 693.001 331.554 716.544 372.41C705.117 373.427 694.197 375.36 685.75 378.75C631.86 400.376 572.729 456.25 543.667 572.5C535.251 606.161 520.105 622.281 502.103 641.44C485.123 659.512 465.601 680.288 446.792 721.042C408.042 805 512.619 888.958 588.875 812.702C631.747 769.83 669.221 752.132 700.684 737.273C745.968 715.886 778.797 700.381 797.342 624.167C806.164 659.717 802.635 743.616 717.936 794.809C633.236 846.001 615.591 953.837 617.355 985.833H1099.08C1099.08 682.075 1058.87 419.629 842.955 378.989Z" fill="#7B61FF"/>
</g>
</g>
<defs>
<clipPath id="clip0_515_1108">
<rect width="1920" height="960" fill="white"/>
</clipPath>
</defs>
</svg>
