<svg width="60" height="54" viewBox="0 0 60 54" fill="none" xmlns="http://www.w3.org/2000/svg">
<path d="M54 24H60L47 14.5V0H40V9.66667L30 2.5L0 24H6L30 7L54 24Z" fill="#34364C"/>
<path d="M50 54V24L30 10L10 24V54H18V50.6503C18 48.9074 18.4058 47.1884 19.1852 45.6295C19.7249 44.5502 20.435 43.565 21.2882 42.7118L21.8462 42.1538C22.6104 41.3896 23.4928 40.7536 24.4595 40.2703C25.4791 39.7605 26.5779 39.4278 27.7091 39.2864L28.3125 39.2109C29.4331 39.0709 30.5669 39.0709 31.6875 39.2109L32.2909 39.2864C33.4221 39.4278 34.5209 39.7605 35.5405 40.2703C36.5072 40.7536 37.3896 41.3896 38.1538 42.1538L38.7118 42.7118C39.565 43.565 40.2751 44.5502 40.8148 45.6295C41.5942 47.1884 42 48.9074 42 50.6503V54H50Z" fill="#34364C"/>
</svg>
