<svg width="60" height="60" viewBox="0 0 60 60" fill="none" xmlns="http://www.w3.org/2000/svg">
<path d="M0 20L17 0V14H32.0784C34.6857 14 37.2861 14.2708 39.8375 14.8079L41.4669 15.1509C44.14 15.7137 46.7114 16.6814 49.0922 18.0206L50.6695 18.9079C52.54 19.96 54.1975 21.3524 55.5564 23.0134C57.1655 24.9801 58.3196 27.2784 58.9359 29.7436L59.2907 31.1628C59.7618 33.0472 60 34.9822 60 36.9245V40L59.2021 44.7873C59.0676 45.5945 58.87 46.39 58.6112 47.1663C57.5641 50.3078 55.5485 53.0368 52.8539 54.9615L50 57L44.5 60L50.1958 53.0837C51.0605 52.0336 51.7659 50.8619 52.2891 49.6062C53.4017 46.9359 53.6502 43.9842 52.9997 41.1655L52.9054 40.7569C52.6361 39.5898 52.2293 38.4586 51.6936 37.3872L51.3461 36.6922C49.8139 33.6277 47.4395 31.0637 44.5015 29.3009C42.5191 28.1114 40.3261 27.3147 38.0425 26.9541L34.7327 26.4315C32.9137 26.1443 31.075 26 29.2334 26H17V40L0 20Z" fill="#34364C"/>
</svg>
