<svg width="60" height="60" viewBox="0 0 60 60" fill="none" xmlns="http://www.w3.org/2000/svg">
<path d="M0 59V1C0 0.447715 0.447715 0 1 0H2H29.723C29.9043 0 30.0821 0.0492578 30.2375 0.142507L39.7625 5.85749C39.9179 5.95074 40.0957 6 40.277 6H59C59.5523 6 60 6.44772 60 7V45C60 45.5523 59.5523 46 59 46H40.277C40.0957 46 39.9179 45.9507 39.7625 45.8575L30.2375 40.1425C30.0821 40.0493 29.9043 40 29.723 40H4C3.44771 40 3 40.4477 3 41V59C3 59.5523 2.55228 60 2 60H1C0.447715 60 0 59.5523 0 59Z" fill="#34364C"/>
</svg>
